<svg version="1.1" id="Layer_1" xmlns="http://www.w3.org/2000/svg" xmlns:xlink="http://www.w3.org/1999/xlink" x="0px" y="0px"
	 width="100%" viewBox="0 0 297 245" enable-background="new 0 0 297 245" xml:space="preserve">
<path fill="#0B192A" opacity="1.000000" stroke="none" 
	d="
M68.938995,200.424911 
	C63.659885,192.552216 58.380772,184.679504 53.542248,176.474640 
	C68.720711,177.277634 82.902473,174.552811 96.786835,169.886612 
	C97.396271,169.681793 97.745491,168.702682 98.568619,168.041641 
	C101.966614,166.408051 105.011909,164.817078 108.403076,163.139114 
	C112.852425,160.092972 116.955917,157.133820 121.423218,154.156311 
	C125.319672,151.490204 128.852295,148.842453 132.688004,146.085114 
	C135.026657,144.053879 137.062256,142.132248 139.395493,140.052933 
	C142.175568,137.401093 144.658005,134.906952 147.415482,132.236389 
	C148.825531,130.791397 149.960556,129.522827 151.372772,128.081787 
	C152.766129,126.606964 153.882278,125.304604 155.265381,123.852493 
	C156.393326,122.586914 157.254318,121.471100 158.416443,120.188103 
	C160.589340,117.719162 162.461090,115.417404 164.580261,112.949738 
	C165.546463,111.836494 166.265244,110.889168 167.258240,109.756584 
	C169.057037,107.629639 170.581604,105.687965 172.265503,103.543373 
	C169.751678,101.933182 167.435623,100.449677 165.037170,98.701996 
	C164.682266,98.217659 164.409760,97.997482 164.168549,97.761536 
	C164.199829,97.745766 164.227081,97.681213 164.044739,97.423218 
	C162.341873,96.075035 160.821335,94.984840 159.130066,93.630157 
	C158.398880,93.115791 157.838425,92.865906 157.215790,92.726547 
	C157.153610,92.837082 157.331039,92.655846 157.248581,92.403893 
	C156.856400,91.996468 156.546692,91.840996 156.193481,91.732056 
	C156.149994,91.778572 156.273758,91.808647 156.184921,91.521210 
	C155.768463,91.008736 155.440842,90.783707 154.943756,90.327942 
	C153.674820,89.358238 152.575378,88.619278 151.304199,87.625885 
	C150.769470,87.200897 150.406479,87.030342 150.060501,86.894150 
	C150.077515,86.928520 150.129166,86.871574 150.130722,86.490845 
	C150.663895,85.786110 151.160248,85.272499 151.732346,85.166115 
	C162.957291,83.078667 174.189621,81.030663 185.424286,78.995834 
	C187.531342,78.614212 189.659180,78.348549 191.769989,77.986107 
	C195.849121,77.285698 199.922974,76.554482 204.419891,75.901337 
	C206.992599,75.517189 209.145905,74.696106 211.295853,74.704819 
	C214.575806,74.718086 218.016235,71.089577 221.064560,75.408127 
	C220.684326,78.211853 220.396637,80.606613 220.072052,83.394684 
	C218.964600,89.214615 217.894058,94.641228 216.621826,100.388260 
	C215.587875,105.808655 214.755585,110.908615 213.853928,116.136200 
	C213.784546,116.263824 213.879272,116.538689 213.647247,116.709007 
	C213.335037,117.239861 213.254868,117.600395 213.114197,118.377945 
	C213.035172,120.196968 213.016647,121.598969 212.804291,123.326752 
	C212.133743,126.101273 211.657028,128.550018 211.090912,131.402863 
	C210.464737,135.177155 209.927994,138.547363 209.273239,142.090271 
	C208.601959,142.471008 208.048706,142.679016 207.329193,142.625885 
	C206.812744,142.175156 206.462555,141.985596 206.133484,141.860458 
	C206.154602,141.924881 206.266785,141.848740 206.214844,141.559052 
	C205.774704,140.845917 205.386475,140.422485 204.999390,139.999527 
	C205.000519,140.000000 205.001694,139.995056 204.917175,139.724457 
	C204.285370,138.950836 203.738113,138.447815 203.077209,137.693115 
	C202.663437,137.245422 202.363312,137.049393 202.061890,136.901489 
	C202.060608,136.949615 202.154449,136.928146 202.071442,136.664963 
	C201.696823,136.203049 201.405243,136.004318 201.142731,135.844528 
	C201.171814,135.883469 201.224457,135.801743 201.115860,135.485641 
	C197.725067,131.378006 194.442871,127.586479 190.982941,123.589630 
	C187.652603,127.322205 184.718018,130.611237 181.582779,133.983124 
	C181.124435,134.239700 180.978714,134.481064 180.692673,134.916107 
	C180.218933,135.342178 179.997528,135.642181 179.572266,136.011719 
	C179.125778,136.265518 178.984680,136.508682 178.692505,136.928879 
	C178.237686,137.350006 178.035477,137.653000 177.581436,138.072021 
	C176.864670,138.751297 176.399719,139.314514 175.657410,140.006622 
	C174.570633,141.038895 173.761215,141.942276 172.711182,142.945084 
	C172.371964,143.349564 172.273361,143.654617 172.129120,144.212219 
	C172.050980,144.632736 172.018448,144.800705 171.684326,145.098938 
	C169.555832,147.088531 167.728943,148.947845 165.597382,150.958466 
	C162.219864,153.748077 159.147003,156.386414 155.839691,159.117920 
	C155.403000,159.473709 155.200760,159.736343 154.754868,160.075958 
	C154.314133,160.424179 154.117035,160.695389 153.953766,160.978882 
	C153.987564,160.991150 153.967957,160.921936 153.711227,161.009064 
	C153.247864,161.381683 153.041229,161.667175 152.622528,162.024673 
	C152.128494,162.247665 151.951584,162.478973 151.568573,162.920868 
	C149.005966,164.986069 146.754517,166.921036 144.264603,168.935837 
	C143.689896,169.376434 143.353668,169.737213 142.783142,170.165100 
	C142.251541,170.402405 142.051483,170.650909 141.972458,170.990433 
	C141.996231,171.003159 141.980560,170.951599 141.712494,171.026459 
	C141.202606,171.373505 140.960785,171.645660 140.417938,172.030487 
	C138.610825,173.373367 137.104736,174.603592 135.286469,175.919312 
	C132.655273,177.670883 130.336243,179.336975 128.008514,181.000793 
	C127.999809,180.998535 127.998238,181.013062 127.737946,181.060257 
	C127.271553,181.379959 127.065445,181.652481 126.903252,181.916748 
	C126.947159,181.908508 126.889420,181.840317 126.577026,181.916245 
	C125.414619,182.626663 124.564590,183.261139 123.408905,183.954224 
	C122.069176,184.695602 121.035103,185.378357 119.750641,186.103958 
	C119.298058,186.401367 119.095856,186.655930 118.936859,186.918167 
	C118.980057,186.925858 118.945663,186.845108 118.649132,186.899353 
	C117.867805,187.289001 117.383003,187.624405 116.569244,188.082352 
	C111.852844,190.224686 107.465401,192.244476 102.682693,194.215729 
	C91.500092,198.005371 80.421333,200.290497 68.938995,200.424911 
z"/>
<path fill="#09DEC2" opacity="1.000000" stroke="none" 
	d="
M85.930893,38.935841 
	C96.945183,29.860262 109.710640,24.093756 123.268349,20.311626 
	C148.138275,13.373780 172.866150,14.170362 196.873154,24.067173 
	C204.174377,27.077080 210.888107,31.512077 217.706635,35.735817 
	C216.429230,36.409492 215.291550,36.924267 214.206787,36.829975 
	C204.037521,35.946102 193.875671,34.156448 183.714874,34.177288 
	C165.979111,34.213654 148.245605,35.345509 130.511230,36.020123 
	C130.179047,36.032757 129.847961,36.071568 129.516022,36.093224 
	C114.987671,37.041111 100.459282,37.988445 85.930893,38.935841 
z"/>
<path fill="#572EF9" opacity="1.000000" stroke="none" 
	d="
M134.035751,237.893295 
	C119.253441,235.561539 105.786339,229.879471 93.429749,221.516205 
	C97.362030,221.105148 101.099800,220.915176 104.828331,221.028656 
	C112.592133,221.264984 120.351173,221.924179 128.111938,221.920227 
	C136.117935,221.916153 144.123169,221.318893 152.129608,221.003036 
	C162.793991,220.582352 173.456696,220.091705 184.124725,219.798615 
	C195.863098,219.476120 207.606705,219.343674 219.348022,219.128418 
	C207.854218,228.032883 194.752411,233.469360 180.120041,236.708374 
	C173.307983,237.264114 167.149445,238.125793 160.528854,238.986969 
	C155.844696,238.681778 151.626816,238.275253 147.399338,238.100189 
	C142.949585,237.915939 138.490662,237.952972 134.035751,237.893295 
z"/>
<path fill="#09D8C5" opacity="1.000000" stroke="none" 
	d="
M85.947784,38.953934 
	C100.459282,37.988445 114.987671,37.041111 129.516022,36.093224 
	C129.847961,36.071568 130.179047,36.032757 130.511230,36.020123 
	C148.245605,35.345509 165.979111,34.213654 183.714874,34.177288 
	C193.875671,34.156448 204.037521,35.946102 214.206787,36.829975 
	C215.291550,36.924267 216.429230,36.409492 217.907684,36.016117 
	C218.273010,35.854977 218.709686,35.950024 218.928192,36.428001 
	C219.853775,37.235352 220.560837,37.564728 221.267899,37.894100 
	C224.302353,40.530170 227.336823,43.166241 230.378143,46.242989 
	C229.735565,46.784966 228.993881,47.143398 228.450638,46.948555 
	C221.516113,44.461411 214.580673,44.091702 207.126144,44.575146 
	C195.744431,45.313286 184.231628,43.749535 172.801682,44.086216 
	C151.941238,44.700691 131.100113,45.979275 110.252754,47.017151 
	C107.953453,47.131626 105.660316,47.438969 103.373924,47.731800 
	C92.762688,49.090839 82.154846,50.476299 71.545784,51.852303 
	C75.716515,47.929806 79.887253,44.007309 84.650284,39.927528 
	C85.483192,39.488438 85.723816,39.206631 85.964432,38.924820 
	C85.964432,38.924820 85.964668,38.972023 85.947784,38.953934 
z"/>
<path fill="#12C1CF" opacity="1.000000" stroke="none" 
	d="
M221.157104,74.999153 
	C218.016235,71.089577 214.575806,74.718086 211.295853,74.704819 
	C209.145905,74.696106 206.992599,75.517189 204.321808,75.532112 
	C200.497879,74.596924 197.136703,73.442207 193.898758,73.720634 
	C184.888657,74.495361 175.937241,75.930023 166.947311,76.971664 
	C162.682358,77.465836 158.374374,77.578156 154.100311,78.007034 
	C148.186996,78.600395 142.302444,79.564392 136.378265,79.946350 
	C126.855164,80.560341 117.309608,80.825211 107.773766,81.242767 
	C94.453621,81.826027 81.125336,82.276001 67.818558,83.080948 
	C63.620911,83.334869 59.445320,84.395218 55.329597,85.379135 
	C53.203568,85.887390 51.371899,86.672874 50.857368,83.590309 
	C52.028816,80.814774 53.200264,78.039230 54.681637,75.448380 
	C56.137657,76.203026 57.344322,77.356247 58.419636,77.244583 
	C63.826954,76.683060 69.178726,75.352943 74.588684,75.090714 
	C98.891891,73.912674 123.208839,73.019859 147.519455,71.991753 
	C155.708893,71.645416 163.891068,71.110100 172.082275,70.826607 
	C184.600418,70.393356 197.122131,69.959267 209.645325,69.839813 
	C213.476318,69.803276 217.519928,71.825096 221.113144,71.115860 
	C229.790268,69.403122 238.113144,69.144157 246.394958,72.593651 
	C247.064728,72.872627 248.122513,72.220016 249.247772,71.855171 
	C249.704285,71.393326 249.913025,71.076599 250.121765,70.759872 
	C251.039200,71.955856 251.956635,73.151833 252.771988,74.786369 
	C252.900131,75.383759 253.130356,75.542587 253.360580,75.701424 
	C253.360580,75.701424 253.347885,75.766922 253.220642,76.148560 
	C252.430420,77.181068 251.703430,78.451416 251.113953,78.390526 
	C241.118210,77.358116 231.139542,76.160362 221.157104,74.999153 
z"/>
<path fill="#14B9D1" opacity="1.000000" stroke="none" 
	d="
M50.573166,83.830254 
	C51.371899,86.672874 53.203568,85.887390 55.329597,85.379135 
	C59.445320,84.395218 63.620911,83.334869 67.818558,83.080948 
	C81.125336,82.276001 94.453621,81.826027 107.773766,81.242767 
	C117.309608,80.825211 126.855164,80.560341 136.378265,79.946350 
	C142.302444,79.564392 148.186996,78.600395 154.100311,78.007034 
	C158.374374,77.578156 162.682358,77.465836 166.947311,76.971664 
	C175.937241,75.930023 184.888657,74.495361 193.898758,73.720634 
	C197.136703,73.442207 200.497879,74.596924 203.900909,75.466812 
	C199.922974,76.554482 195.849121,77.285698 191.769989,77.986107 
	C189.659180,78.348549 187.531342,78.614212 185.424286,78.995834 
	C174.189621,81.030663 162.957291,83.078667 151.732346,85.166115 
	C151.160248,85.272499 150.663895,85.786110 149.733826,86.534424 
	C147.174927,87.706238 145.062714,88.864677 142.845108,89.124878 
	C135.956909,89.933083 129.039124,90.614265 122.113663,90.950432 
	C111.339340,91.473427 100.549721,91.687263 89.765602,91.998314 
	C86.688599,92.087051 83.591225,91.859444 80.532463,92.120239 
	C69.905670,93.026321 59.291733,94.083252 48.349125,95.113281 
	C48.242874,94.308365 48.073841,93.027817 47.904808,91.747269 
	C48.699524,89.188248 49.494240,86.629219 50.573166,83.830254 
z"/>
<path fill="#18B0D5" opacity="1.000000" stroke="none" 
	d="
M47.628372,92.004974 
	C48.073841,93.027817 48.242874,94.308365 48.349125,95.113281 
	C59.291733,94.083252 69.905670,93.026321 80.532463,92.120239 
	C83.591225,91.859444 86.688599,92.087051 89.765602,91.998314 
	C100.549721,91.687263 111.339340,91.473427 122.113663,90.950432 
	C129.039124,90.614265 135.956909,89.933083 142.845108,89.124878 
	C145.062714,88.864677 147.174927,87.706238 149.732269,86.915146 
	C150.129166,86.871574 150.077515,86.928520 150.209137,87.170364 
	C150.719147,87.568245 151.097534,87.724281 151.475922,87.880318 
	C152.575378,88.619278 153.674820,89.358238 155.015747,90.633591 
	C155.596054,91.382858 155.934906,91.595757 156.273758,91.808647 
	C156.273758,91.808647 156.149994,91.778572 156.233398,92.023422 
	C156.654877,92.397469 156.992950,92.526657 157.331039,92.655846 
	C157.331039,92.655846 157.153610,92.837082 157.281555,93.070595 
	C158.039948,93.500954 158.670364,93.697800 159.300797,93.894646 
	C160.821335,94.984840 162.341873,96.075035 163.610931,97.519073 
	C159.625824,98.580017 155.910187,99.775787 152.155640,99.914047 
	C129.612869,100.744194 107.064102,101.469101 84.511368,101.947647 
	C71.272865,102.228554 57.984631,101.478279 44.965076,104.594200 
	C44.886196,103.923889 44.849682,103.656372 44.813164,103.388847 
	C45.659420,99.680130 46.505676,95.971405 47.628372,92.004974 
z"/>
<path fill="#0BD3C7" opacity="1.000000" stroke="none" 
	d="
M71.270050,51.999252 
	C82.154846,50.476299 92.762688,49.090839 103.373924,47.731800 
	C105.660316,47.438969 107.953453,47.131626 110.252754,47.017151 
	C131.100113,45.979275 151.941238,44.700691 172.801682,44.086216 
	C184.231628,43.749535 195.744431,45.313286 207.126144,44.575146 
	C214.580673,44.091702 221.516113,44.461411 228.450638,46.948555 
	C228.993881,47.143398 229.735565,46.784966 230.659409,46.443405 
	C233.011246,48.210812 235.088699,50.218483 236.858185,52.580086 
	C225.715347,50.254318 214.717285,50.542141 203.683365,50.942921 
	C196.702988,51.196468 189.698654,50.785862 182.717865,51.033745 
	C157.186829,51.940331 131.642303,52.670986 106.141708,54.141598 
	C93.985886,54.842621 81.920982,57.088444 69.803963,58.543552 
	C68.587326,58.689655 67.294769,58.203632 66.037445,58.010979 
	C67.689743,56.056053 69.342033,54.101128 71.270050,51.999252 
z"/>
<path fill="#5233F7" opacity="1.000000" stroke="none" 
	d="
M219.542236,219.043091 
	C207.606705,219.343674 195.863098,219.476120 184.124725,219.798615 
	C173.456696,220.091705 162.793991,220.582352 152.129608,221.003036 
	C144.123169,221.318893 136.117935,221.916153 128.111938,221.920227 
	C120.351173,221.924179 112.592133,221.264984 104.828331,221.028656 
	C101.099800,220.915176 97.362030,221.105148 93.221664,221.255905 
	C92.814873,221.354111 92.836998,221.334152 92.732864,221.004303 
	C92.014725,220.481064 91.400726,220.287674 90.786736,220.094269 
	C88.517799,218.306778 86.248856,216.519287 84.366806,214.366974 
	C96.118568,214.335922 107.484406,214.640244 118.847923,215.015076 
	C125.219299,215.225220 131.614624,216.069366 137.950867,215.728989 
	C156.610825,214.726578 175.247452,213.286499 193.891647,211.995132 
	C202.798431,211.378189 211.694992,210.543121 220.611374,210.186829 
	C222.748795,210.101410 224.946747,211.531387 227.116852,212.264404 
	C225.353867,213.793961 223.590866,215.323517 221.250641,217.060394 
	C220.471176,217.575043 220.268936,217.882370 220.066711,218.189697 
	C220.045990,218.484146 219.935913,218.740173 219.542236,219.043091 
z"/>
<path fill="#0CD0C9" opacity="1.000000" stroke="none" 
	d="
M65.782768,58.161327 
	C67.294769,58.203632 68.587326,58.689655 69.803963,58.543552 
	C81.920982,57.088444 93.985886,54.842621 106.141708,54.141598 
	C131.642303,52.670986 157.186829,51.940331 182.717865,51.033745 
	C189.698654,50.785862 196.702988,51.196468 203.683365,50.942921 
	C214.717285,50.542141 225.715347,50.254318 237.001404,52.893322 
	C238.461365,54.177608 239.470154,55.502594 240.730194,57.366249 
	C240.399216,58.429237 239.410370,59.489571 239.293243,59.400723 
	C234.284561,55.601391 228.441223,56.037106 222.691162,56.000301 
	C184.088394,55.753216 145.511917,56.051533 106.968575,58.843506 
	C94.436371,59.751305 81.834663,59.231087 69.553284,62.742577 
	C67.986588,63.190525 65.800552,61.472343 63.901443,60.757664 
	C64.443657,59.942333 64.985870,59.127007 65.782768,58.161327 
z"/>
<path fill="#4843F2" opacity="1.000000" stroke="none" 
	d="
M246.211426,192.231812 
	C244.681046,194.411957 243.150665,196.592117 241.233292,198.524353 
	C238.031342,197.887131 235.184219,197.010300 232.407043,197.193558 
	C220.867126,197.955002 209.364563,199.427277 197.817886,199.907074 
	C181.061325,200.603348 164.278625,200.673080 147.506790,200.996262 
	C144.571289,201.052841 141.628220,200.925430 138.699387,201.082733 
	C127.629082,201.677322 116.563484,202.358948 105.495560,202.998352 
	C99.545731,203.342056 93.588623,203.966217 87.647476,203.844559 
	C85.412415,203.798798 83.213181,202.002914 81.443008,201.003174 
	C90.896400,200.283264 100.124916,200.566116 108.866898,198.640335 
	C127.597321,194.514221 146.576126,196.682800 165.391525,195.177399 
	C181.189423,193.913422 197.114182,194.287506 212.977203,193.766953 
	C224.060150,193.403244 235.133682,192.753677 246.211426,192.231812 
z"/>
<path fill="#1AA9D7" opacity="1.000000" stroke="none" 
	d="
M45.007439,104.996986 
	C57.984631,101.478279 71.272865,102.228554 84.511368,101.947647 
	C107.064102,101.469101 129.612869,100.744194 152.155640,99.914047 
	C155.910187,99.775787 159.625824,98.580017 163.793259,97.777069 
	C164.227081,97.681213 164.199829,97.745766 164.231293,98.031784 
	C164.548355,98.533920 164.833969,98.750046 165.119568,98.966171 
	C167.435623,100.449677 169.751678,101.933182 172.265503,103.543373 
	C170.581604,105.687965 169.057037,107.629639 167.245605,109.345001 
	C166.215775,108.419922 165.503418,107.151421 164.725174,107.109604 
	C155.955521,106.638435 147.167603,105.951286 138.400803,106.127769 
	C128.159348,106.333946 117.942184,107.554031 107.699631,107.943459 
	C93.438103,108.485695 79.161301,108.614197 64.894173,109.027832 
	C59.939781,109.171471 54.993351,109.872566 50.046051,109.843781 
	C47.955017,109.831612 45.871120,108.592636 43.783981,107.911278 
	C43.806442,107.480667 43.828899,107.050049 44.155762,106.197746 
	C44.725319,105.574493 44.907742,105.314804 45.007439,104.996986 
z"/>
<path fill="#4449EF" opacity="1.000000" stroke="none" 
	d="
M246.197052,192.227936 
	C235.133682,192.753677 224.060150,193.403244 212.977203,193.766953 
	C197.114182,194.287506 181.189423,193.913422 165.391525,195.177399 
	C146.576126,196.682800 127.597321,194.514221 108.866898,198.640335 
	C100.124916,200.566116 90.896400,200.283264 80.999298,201.002182 
	C77.742325,201.028412 75.374458,201.053940 72.692032,201.081055 
	C71.898903,201.436096 71.420341,201.789536 70.941788,202.142975 
	C70.315758,201.753265 69.689735,201.363541 69.001358,200.699371 
	C80.421333,200.290497 91.500092,198.005371 102.959045,194.439392 
	C104.778122,194.755203 105.948929,194.968521 107.069206,194.814468 
	C113.545593,193.923843 119.982086,192.573685 126.485107,192.085617 
	C136.312057,191.348114 146.182983,191.200989 156.034470,190.785110 
	C169.927261,190.198624 183.819260,189.593414 197.711945,189.004227 
	C198.874619,188.954926 200.042435,189.010193 201.203537,188.942642 
	C217.543915,187.991974 233.883545,187.028412 250.223358,186.067993 
	C249.239548,187.172516 248.255722,188.277039 246.902267,189.867661 
	C246.416061,190.970016 246.299484,191.586288 246.182922,192.202560 
	C246.182922,192.202560 246.182693,192.224075 246.197052,192.227936 
z"/>
<path fill="#0ECACC" opacity="1.000000" stroke="none" 
	d="
M57.866501,69.648270 
	C58.019794,69.149429 58.173088,68.650589 58.834045,67.944542 
	C59.524906,67.423698 59.708099,67.110069 59.891293,66.796432 
	C59.891293,66.796432 59.869537,66.899841 60.276573,66.919579 
	C62.491386,66.779427 64.305229,66.669510 66.105843,66.450684 
	C72.665375,65.653473 79.200195,64.535820 85.781944,64.065338 
	C96.136887,63.325142 106.523918,63.042427 116.894470,62.509842 
	C132.694382,61.698437 148.484711,60.643646 164.292816,60.069931 
	C174.531494,59.698345 184.794983,59.952797 195.046478,60.036392 
	C197.340652,60.055096 199.635178,60.790436 201.922562,60.754311 
	C212.383453,60.589130 222.841354,60.116840 233.301437,60.081661 
	C237.007950,60.069199 240.717575,60.984108 244.425781,61.475647 
	C244.425781,61.475651 244.431335,61.571991 244.305298,62.017750 
	C244.119492,63.642338 244.059738,64.821167 243.601532,65.992996 
	C238.006165,65.328537 232.822784,64.493134 227.606033,64.096733 
	C225.359192,63.926003 223.037384,64.979637 220.759705,64.937157 
	C209.246735,64.722466 197.730057,63.906929 186.227875,64.097794 
	C168.349579,64.394447 150.481750,65.328598 132.609848,66.002068 
	C124.172119,66.320030 115.701714,66.295868 107.305191,67.068687 
	C91.549797,68.518845 75.455910,66.343956 60.009167,71.354454 
	C59.529854,71.509926 58.591072,70.248909 57.866501,69.648270 
z"/>
<path fill="#375FEA" opacity="1.000000" stroke="none" 
	d="
M135.598633,175.833801 
	C137.104736,174.603592 138.610825,173.373367 140.691055,171.962921 
	C141.503647,171.505646 141.742096,171.228622 141.980560,170.951599 
	C141.980560,170.951599 141.996231,171.003159 142.196472,170.905960 
	C142.680771,170.639236 142.887680,170.402313 143.017426,170.097992 
	C143.353668,169.737213 143.689896,169.376434 144.731216,168.975128 
	C149.050095,169.271317 152.684891,170.027557 156.272827,169.847885 
	C161.860626,169.568069 167.402435,168.288010 172.988556,168.071289 
	C194.352814,167.242416 215.728149,166.703308 237.096863,165.982346 
	C245.160995,165.710266 253.298233,165.711288 260.796875,162.000809 
	C260.089233,164.531677 259.381592,167.062546 257.950806,169.805573 
	C255.565567,170.053711 253.895248,169.995834 252.242645,170.140381 
	C237.768463,171.406403 223.319138,173.137695 208.818954,173.870316 
	C196.200851,174.507843 183.520828,173.802521 170.878403,174.110367 
	C159.111465,174.396912 147.358017,175.237274 135.598633,175.833801 
z"/>
<path fill="#0ECDCB" opacity="1.000000" stroke="none" 
	d="
M244.318100,61.191269 
	C240.717575,60.984108 237.007950,60.069199 233.301437,60.081661 
	C222.841354,60.116840 212.383453,60.589130 201.922562,60.754311 
	C199.635178,60.790436 197.340652,60.055096 195.046478,60.036392 
	C184.794983,59.952797 174.531494,59.698345 164.292816,60.069931 
	C148.484711,60.643646 132.694382,61.698437 116.894470,62.509842 
	C106.523918,63.042427 96.136887,63.325142 85.781944,64.065338 
	C79.200195,64.535820 72.665375,65.653473 66.105843,66.450684 
	C64.305229,66.669510 62.491386,66.779427 60.233746,66.888641 
	C60.961449,64.933044 62.139019,63.028133 63.609016,60.940441 
	C65.800552,61.472343 67.986588,63.190525 69.553284,62.742577 
	C81.834663,59.231087 94.436371,59.751305 106.968575,58.843506 
	C145.511917,56.051533 184.088394,55.753216 222.691162,56.000301 
	C228.441223,56.037106 234.284561,55.601391 239.293243,59.400723 
	C239.410370,59.489571 240.399216,58.429237 240.988647,57.566319 
	C242.067368,58.454109 243.138885,59.680500 244.318100,61.191269 
z"/>
<path fill="#3B58EC" opacity="1.000000" stroke="none" 
	d="
M135.286469,175.919312 
	C147.358017,175.237274 159.111465,174.396912 170.878403,174.110367 
	C183.520828,173.802521 196.200851,174.507843 208.818954,173.870316 
	C223.319138,173.137695 237.768463,171.406403 252.242645,170.140381 
	C253.895248,169.995834 255.565567,170.053711 257.675781,170.030487 
	C257.148346,171.823135 256.172821,173.602997 254.618134,175.691376 
	C242.176743,176.999146 230.331207,178.363129 218.448135,178.906784 
	C203.015656,179.612839 187.553177,179.660065 172.103882,180.002502 
	C157.408142,180.328217 142.712753,180.668930 128.017212,181.003052 
	C130.336243,179.336975 132.655273,177.670883 135.286469,175.919312 
z"/>
<path fill="#4B3EF3" opacity="1.000000" stroke="none" 
	d="
M73.006599,201.079468 
	C75.374458,201.053940 77.742325,201.028412 80.553894,201.003876 
	C83.213181,202.002914 85.412415,203.798798 87.647476,203.844559 
	C93.588623,203.966217 99.545731,203.342056 105.495560,202.998352 
	C116.563484,202.358948 127.629082,201.677322 138.699387,201.082733 
	C141.628220,200.925430 144.571289,201.052841 147.506790,200.996262 
	C164.278625,200.673080 181.061325,200.603348 197.817886,199.907074 
	C209.364563,199.427277 220.867126,197.955002 232.407043,197.193558 
	C235.184219,197.010300 238.031342,197.887131 240.934494,198.673264 
	C240.331833,199.990540 239.640976,200.910980 238.206924,201.950104 
	C219.108475,203.040863 200.761292,204.221100 182.395935,204.932388 
	C159.402588,205.822922 136.396927,206.446838 113.391441,206.952621 
	C100.908066,207.227066 88.414040,207.017395 75.924820,207.026093 
	C75.009796,206.251968 74.094772,205.477844 73.078247,204.039810 
	C72.986694,202.610428 72.996643,201.844955 73.006599,201.079468 
z"/>
<path fill="#2881E1" opacity="1.000000" stroke="none" 
	d="
M139.097855,140.210632 
	C137.062256,142.132248 135.026657,144.053879 132.309891,145.918671 
	C128.295517,145.453323 124.965302,144.733810 121.628494,144.701736 
	C114.906242,144.637085 108.177986,144.878891 101.456543,145.116608 
	C89.323494,145.545761 77.195145,146.108719 65.061836,146.529404 
	C58.037647,146.772949 51.007610,146.847824 43.980202,146.998596 
	C43.980202,146.998596 43.755478,146.583359 44.068680,146.134369 
	C44.266998,143.785904 44.152119,141.886398 44.456573,139.981232 
	C47.815128,139.650360 50.752655,139.063110 53.693859,139.044067 
	C68.695488,138.946945 83.703690,139.248703 98.698509,138.914139 
	C110.394569,138.653183 122.069908,137.520798 133.766312,137.156586 
	C135.510117,137.102295 137.319046,139.140488 139.097855,140.210632 
z"/>
<path fill="#10C5CE" opacity="1.000000" stroke="none" 
	d="
M249.000000,72.000305 
	C248.122513,72.220016 247.064728,72.872627 246.394958,72.593651 
	C238.113144,69.144157 229.790268,69.403122 221.113144,71.115860 
	C217.519928,71.825096 213.476318,69.803276 209.645325,69.839813 
	C197.122131,69.959267 184.600418,70.393356 172.082275,70.826607 
	C163.891068,71.110100 155.708893,71.645416 147.519455,71.991753 
	C123.208839,73.019859 98.891891,73.912674 74.588684,75.090714 
	C69.178726,75.352943 63.826954,76.683060 58.419636,77.244583 
	C57.344322,77.356247 56.137657,76.203026 54.966499,75.239021 
	C54.941433,74.844971 55.011158,74.382935 55.434540,74.192741 
	C56.238277,74.001114 56.618629,73.999687 57.419624,73.997597 
	C64.026611,72.998970 70.180145,71.543411 76.406044,71.097000 
	C89.936768,70.126816 103.501770,69.610390 117.057671,69.021568 
	C133.933899,68.288521 150.809967,67.423264 167.695602,67.072556 
	C183.655487,66.741074 199.627747,66.982498 215.594421,67.025810 
	C217.702911,67.031540 219.843231,67.682991 221.912979,67.476303 
	C231.375534,66.531380 240.759445,65.743279 249.000000,72.000305 
z"/>
<path fill="#4D3BF4" opacity="1.000000" stroke="none" 
	d="
M75.991760,207.361206 
	C88.414040,207.017395 100.908066,207.227066 113.391441,206.952621 
	C136.396927,206.446838 159.402588,205.822922 182.395935,204.932388 
	C200.761292,204.221100 219.108475,203.040863 237.963440,202.112518 
	C237.638123,203.011978 236.813095,203.867722 235.311890,204.904633 
	C222.464584,206.054749 210.305725,207.236267 198.119247,207.939148 
	C182.683105,208.829453 167.226990,209.396942 151.774475,209.968185 
	C145.222839,210.210388 138.658447,210.156586 132.099899,210.152573 
	C117.724518,210.143784 103.347588,209.959900 88.975182,210.146881 
	C86.251846,210.182312 83.546516,211.601532 80.832878,212.382248 
	C79.241486,210.820282 77.650093,209.258301 75.991760,207.361206 
z"/>
<path fill="#4F37F6" opacity="1.000000" stroke="none" 
	d="
M81.001450,212.631317 
	C83.546516,211.601532 86.251846,210.182312 88.975182,210.146881 
	C103.347588,209.959900 117.724518,210.143784 132.099899,210.152573 
	C138.658447,210.156586 145.222839,210.210388 151.774475,209.968185 
	C167.226990,209.396942 182.683105,208.829453 198.119247,207.939148 
	C210.305725,207.236267 222.464584,206.054749 235.097931,205.122223 
	C232.985489,207.501480 230.410843,209.844330 227.476532,212.225800 
	C224.946747,211.531387 222.748795,210.101410 220.611374,210.186829 
	C211.694992,210.543121 202.798431,211.378189 193.891647,211.995132 
	C175.247452,213.286499 156.610825,214.726578 137.950867,215.728989 
	C131.614624,216.069366 125.219299,215.225220 118.847923,215.015076 
	C107.484406,214.640244 96.118568,214.335922 84.306656,214.004486 
	C82.963081,213.631348 82.066551,213.255859 81.001450,212.631317 
z"/>
<path fill="#414DEF" opacity="1.000000" stroke="none" 
	d="
M250.488464,185.846252 
	C233.883545,187.028412 217.543915,187.991974 201.203537,188.942642 
	C200.042435,189.010193 198.874619,188.954926 197.711945,189.004227 
	C183.819260,189.593414 169.927261,190.198624 156.034470,190.785110 
	C146.182983,191.200989 136.312057,191.348114 126.485107,192.085617 
	C119.982086,192.573685 113.545593,193.923843 107.069206,194.814468 
	C105.948929,194.968521 104.778122,194.755203 103.354309,194.487930 
	C107.465401,192.244476 111.852844,190.224686 116.888329,188.072617 
	C118.006126,187.575256 118.475891,187.210175 118.945663,186.845093 
	C118.945663,186.845108 118.980057,186.925858 119.213676,186.953827 
	C119.632431,186.987640 119.817574,186.993515 120.380226,187.164856 
	C123.549690,187.537674 126.359734,188.059479 129.130600,187.900055 
	C144.331421,187.025558 159.514130,185.813416 174.719879,185.054153 
	C186.822159,184.449860 198.948593,184.329330 211.064209,183.990585 
	C211.562637,183.976654 212.060303,183.930267 212.557983,183.894470 
	C225.755051,182.945358 238.952103,181.995667 252.149139,181.046066 
	C251.683945,182.572220 251.218750,184.098373 250.488464,185.846252 
z"/>
<path fill="#3E52EE" opacity="1.000000" stroke="none" 
	d="
M252.445099,180.882904 
	C238.952103,181.995667 225.755051,182.945358 212.557983,183.894470 
	C212.060303,183.930267 211.562637,183.976654 211.064209,183.990585 
	C198.948593,184.329330 186.822159,184.449860 174.719879,185.054153 
	C159.514130,185.813416 144.331421,187.025558 129.130600,187.900055 
	C126.359734,188.059479 123.549690,187.537674 120.379478,186.930298 
	C120.001228,186.530273 120.001030,186.061111 120.001030,186.061111 
	C121.035103,185.378357 122.069176,184.695602 123.795639,183.980377 
	C125.288498,183.245377 126.088959,182.542847 126.889420,181.840317 
	C126.889420,181.840317 126.947159,181.908508 127.149704,181.844604 
	C127.567581,181.524826 127.782913,181.268936 127.998238,181.013062 
	C127.998238,181.013062 127.999809,180.998535 128.008514,181.000793 
	C142.712753,180.668930 157.408142,180.328217 172.103882,180.002502 
	C187.553177,179.660065 203.015656,179.612839 218.448135,178.906784 
	C230.331207,178.363129 242.176743,176.999146 254.459503,175.999405 
	C254.167053,177.572510 253.454056,179.146118 252.445099,180.882904 
z"/>
<path fill="#2D74E4" opacity="1.000000" stroke="none" 
	d="
M165.902054,150.807175 
	C167.728943,148.947845 169.555832,147.088531 171.922241,145.406189 
	C174.518661,146.055420 176.581848,146.959747 178.631454,146.929993 
	C192.183365,146.733398 205.730743,146.206985 219.282715,146.038940 
	C234.182266,145.854187 249.085144,145.939102 264.026215,145.946014 
	C264.065857,145.985535 264.061707,146.097397 264.061707,146.097397 
	C264.096588,147.148499 264.131500,148.199585 263.839386,149.741730 
	C263.258759,150.432877 263.086731,150.688019 262.556580,150.998810 
	C248.250381,151.666290 234.388412,152.460129 220.515701,152.950363 
	C212.718353,153.225906 204.900742,152.877228 197.097031,153.039337 
	C190.989960,153.166214 184.865448,154.123489 178.795609,153.808304 
	C174.457520,153.583054 170.197113,151.861237 165.902054,150.807175 
z"/>
<path fill="#3465E8" opacity="1.000000" stroke="none" 
	d="
M260.958557,161.747894 
	C253.298233,165.711288 245.160995,165.710266 237.096863,165.982346 
	C215.728149,166.703308 194.352814,167.242416 172.988556,168.071289 
	C167.402435,168.288010 161.860626,169.568069 156.272827,169.847885 
	C152.684891,170.027557 149.050095,169.271317 144.969681,168.895294 
	C146.754517,166.921036 149.005966,164.986069 151.844635,163.248596 
	C157.670792,163.297424 162.909103,163.055283 168.148804,163.019821 
	C178.541321,162.949448 188.941956,163.239120 199.325821,162.929703 
	C213.541458,162.506119 227.748703,161.737854 241.950806,160.958191 
	C246.713440,160.696732 251.440887,159.830902 256.202179,159.487228 
	C257.824097,159.370148 259.500366,160.006683 261.151825,160.298874 
	C261.141327,160.697586 261.130798,161.096283 260.958557,161.747894 
z"/>
<path fill="#10C6CD" opacity="1.000000" stroke="none" 
	d="
M249.247772,71.855179 
	C240.759445,65.743279 231.375534,66.531380 221.912979,67.476303 
	C219.843231,67.682991 217.702911,67.031540 215.594421,67.025810 
	C199.627747,66.982498 183.655487,66.741074 167.695602,67.072556 
	C150.809967,67.423264 133.933899,68.288521 117.057671,69.021568 
	C103.501770,69.610390 89.936768,70.126816 76.406044,71.097000 
	C70.180145,71.543411 64.026611,72.998970 57.410988,73.595123 
	C56.939587,72.657440 56.897457,72.121582 56.855331,71.585716 
	C57.017735,71.034393 57.180134,70.483078 57.604515,69.790009 
	C58.591072,70.248909 59.529854,71.509926 60.009167,71.354454 
	C75.455910,66.343956 91.549797,68.518845 107.305191,67.068687 
	C115.701714,66.295868 124.172119,66.320030 132.609848,66.002068 
	C150.481750,65.328598 168.349579,64.394447 186.227875,64.097794 
	C197.730057,63.906929 209.246735,64.722466 220.759705,64.937157 
	C223.037384,64.979637 225.359192,63.926003 227.606033,64.096733 
	C232.822784,64.493134 238.006165,65.328537 244.041107,65.990372 
	C245.758362,65.942039 246.637619,65.889320 247.516861,65.836609 
	C248.389114,67.262016 249.261353,68.687416 250.127686,70.436356 
	C249.913025,71.076599 249.704285,71.393326 249.247772,71.855179 
z"/>
<path fill="#2C79E3" opacity="1.000000" stroke="none" 
	d="
M43.928581,147.383286 
	C51.007610,146.847824 58.037647,146.772949 65.061836,146.529404 
	C77.195145,146.108719 89.323494,145.545761 101.456543,145.116608 
	C108.177986,144.878891 114.906242,144.637085 121.628494,144.701736 
	C124.965302,144.733810 128.295517,145.453323 132.006821,146.028290 
	C128.852295,148.842453 125.319672,151.490204 121.334015,153.752991 
	C118.425346,152.941193 115.981422,152.260849 113.511330,152.146759 
	C109.783829,151.974609 106.037949,152.247177 102.300110,152.237793 
	C99.060684,152.229660 95.817909,151.952911 92.583023,152.038147 
	C82.831764,152.295135 73.081398,152.966766 63.335087,152.893188 
	C57.108013,152.846191 50.888737,151.765549 44.665962,151.148315 
	C44.665962,151.148331 44.801453,151.094208 44.801575,150.930420 
	C44.717892,150.445511 44.530991,150.204330 44.240997,150.043106 
	C44.119652,149.284729 43.998306,148.526352 43.928581,147.383286 
z"/>
<path fill="#1DA0DA" opacity="1.000000" stroke="none" 
	d="
M164.332840,113.115646 
	C162.461090,115.417404 160.589340,117.719162 158.376953,119.767868 
	C156.678970,118.351357 155.416687,116.341919 153.947189,116.176826 
	C148.716705,115.589203 143.406250,115.332558 138.143539,115.499733 
	C129.772675,115.765625 121.422371,116.663246 113.051598,116.950562 
	C98.777679,117.440498 84.488319,117.502342 70.217705,118.058586 
	C61.135925,118.412582 52.076267,119.334351 42.999420,119.652634 
	C42.977680,118.838921 42.963207,118.374092 42.948738,117.909264 
	C42.977375,117.178864 43.006016,116.448471 43.515545,115.346817 
	C50.879147,114.317619 57.749969,113.302353 64.646935,113.072861 
	C81.274673,112.519547 97.914467,112.324928 114.549805,112.006813 
	C118.120949,111.938515 121.735390,112.303879 125.258446,111.878197 
	C138.363480,110.294754 151.375351,110.569725 164.332840,113.115646 
z"/>
<path fill="#1BA4D9" opacity="1.000000" stroke="none" 
	d="
M164.580261,112.949738 
	C151.375351,110.569725 138.363480,110.294754 125.258446,111.878197 
	C121.735390,112.303879 118.120949,111.938515 114.549805,112.006813 
	C97.914467,112.324928 81.274673,112.519547 64.646935,113.072861 
	C57.749969,113.302353 50.879147,114.317619 43.585342,114.988022 
	C43.211742,112.844040 43.249245,110.687584 43.535362,108.221207 
	C45.871120,108.592636 47.955017,109.831612 50.046051,109.843781 
	C54.993351,109.872566 59.939781,109.171471 64.894173,109.027832 
	C79.161301,108.614197 93.438103,108.485695 107.699631,107.943459 
	C117.942184,107.554031 128.159348,106.333946 138.400803,106.127769 
	C147.167603,105.951286 155.955521,106.638435 164.725174,107.109604 
	C165.503418,107.151421 166.215775,108.419922 166.971375,109.530273 
	C166.265244,110.889168 165.546463,111.836494 164.580261,112.949738 
z"/>
<path fill="#1BA7D8" opacity="1.000000" stroke="none" 
	d="
M213.923309,116.008575 
	C214.755585,110.908615 215.587875,105.808655 216.956680,100.169998 
	C218.291870,99.103760 219.051071,98.199928 219.895782,98.111305 
	C224.485123,97.629845 229.092148,97.293762 233.699478,97.012070 
	C242.237640,96.490051 250.780228,96.040321 259.154053,95.569870 
	C259.485901,94.284424 259.786407,93.120438 260.086884,91.956451 
	C261.338409,96.044357 262.589935,100.132263 263.442657,104.619888 
	C247.641388,106.397568 232.238922,107.775536 216.158188,109.214188 
	C215.876724,110.866760 215.439880,113.431572 214.733124,116.000519 
	C214.283234,116.005974 214.103271,116.007278 213.923309,116.008575 
z"/>
<path fill="#2F72E5" opacity="1.000000" stroke="none" 
	d="
M44.621742,151.541840 
	C50.888737,151.765549 57.108013,152.846191 63.335087,152.893188 
	C73.081398,152.966766 82.831764,152.295135 92.583023,152.038147 
	C95.817909,151.952911 99.060684,152.229660 102.300110,152.237793 
	C106.037949,152.247177 109.783829,151.974609 113.511330,152.146759 
	C115.981422,152.260849 118.425346,152.941193 120.970200,153.771347 
	C116.955917,157.133820 112.852425,160.092972 108.374344,162.709396 
	C107.161819,161.584885 106.375595,160.195587 105.477661,160.119171 
	C99.307480,159.594116 93.116470,159.121399 86.927383,159.050842 
	C73.667282,158.899658 60.404293,159.001907 47.142487,159.000381 
	C46.287498,156.645386 45.432507,154.290375 44.621742,151.541840 
z"/>
<path fill="#326AE7" opacity="1.000000" stroke="none" 
	d="
M261.472595,160.092636 
	C259.500366,160.006683 257.824097,159.370148 256.202179,159.487228 
	C251.440887,159.830902 246.713440,160.696732 241.950806,160.958191 
	C227.748703,161.737854 213.541458,162.506119 199.325821,162.929703 
	C188.941956,163.239120 178.541321,162.949448 168.148804,163.019821 
	C162.909103,163.055283 157.670792,163.297424 152.155792,163.118378 
	C151.951584,162.478973 152.128494,162.247665 152.876404,161.934311 
	C153.550873,161.488602 153.759415,161.205261 153.967957,160.921936 
	C153.967957,160.921936 153.987564,160.991150 154.189041,160.887070 
	C154.593185,160.521652 154.795837,160.260300 154.998505,159.998962 
	C155.200760,159.736343 155.403000,159.473709 156.302902,159.110306 
	C174.012619,158.673050 191.025253,158.361649 208.036606,157.992157 
	C221.641724,157.696655 235.278610,157.775116 248.831940,156.760132 
	C253.727783,156.393494 260.246063,157.633011 262.996338,150.998169 
	C263.086731,150.688019 263.258759,150.432877 263.718262,150.122025 
	C263.213867,153.302994 262.503601,156.594696 261.472595,160.092636 
z"/>
<path fill="#18B1D4" opacity="1.000000" stroke="none" 
	d="
M260.083740,91.580383 
	C259.786407,93.120438 259.485901,94.284424 259.154053,95.569870 
	C250.780228,96.040321 242.237640,96.490051 233.699478,97.012070 
	C229.092148,97.293762 224.485123,97.629845 219.895782,98.111305 
	C219.051071,98.199928 218.291870,99.103760 217.158356,99.849571 
	C217.894058,94.641228 218.964600,89.214615 220.424164,83.438248 
	C224.916794,84.391914 228.970871,86.565025 233.135208,86.802193 
	C239.993179,87.192780 246.929153,86.419830 253.815094,85.907089 
	C254.939972,85.823334 255.976837,84.557457 257.054382,83.837952 
	C258.063141,86.293411 259.071899,88.748871 260.083740,91.580383 
z"/>
<path fill="#326AE7" opacity="1.000000" stroke="none" 
	d="
M47.062927,159.370941 
	C60.404293,159.001907 73.667282,158.899658 86.927383,159.050842 
	C93.116470,159.121399 99.307480,159.594116 105.477661,160.119171 
	C106.375595,160.195587 107.161819,161.584885 108.028473,162.796387 
	C105.011909,164.817078 101.966614,166.408051 98.118484,168.016037 
	C91.776253,167.397339 86.247787,166.381027 80.694710,166.221481 
	C73.629074,166.018494 66.535599,166.365936 59.469540,166.755661 
	C55.330753,166.983902 51.022411,168.595306 48.118393,164.001587 
	C47.740047,162.581558 47.361706,161.161530 47.062927,159.370941 
z"/>
<path fill="#1E9DDB" opacity="1.000000" stroke="none" 
	d="
M215.003052,115.996376 
	C215.439880,113.431572 215.876724,110.866760 216.158188,109.214188 
	C232.238922,107.775536 247.641388,106.397568 263.445435,105.007278 
	C264.234894,108.046791 264.622772,111.098640 264.472778,114.575241 
	C259.683685,115.286812 255.436050,115.729996 251.180511,115.827003 
	C242.998962,116.013504 234.813019,116.022606 226.628693,116.067482 
	C222.753723,116.088722 218.878281,116.022812 215.003052,115.996376 
z"/>
<path fill="#3563E8" opacity="1.000000" stroke="none" 
	d="
M48.109406,164.368851 
	C51.022411,168.595306 55.330753,166.983902 59.469540,166.755661 
	C66.535599,166.365936 73.629074,166.018494 80.694710,166.221481 
	C86.247787,166.381027 91.776253,167.397339 97.765785,168.058655 
	C97.745491,168.702682 97.396271,169.681793 96.786835,169.886612 
	C82.902473,174.552811 68.720711,177.277634 53.518471,176.112640 
	C51.402878,172.300583 49.751648,168.518341 48.109406,164.368851 
z"/>
<path fill="#15BAD1" opacity="1.000000" stroke="none" 
	d="
M256.950897,83.506859 
	C255.976837,84.557457 254.939972,85.823334 253.815094,85.907089 
	C246.929153,86.419830 239.993179,87.192780 233.135208,86.802193 
	C228.970871,86.565025 224.916794,84.391914 220.461060,83.044922 
	C220.396637,80.606613 220.684326,78.211853 221.064560,75.408127 
	C231.139542,76.160362 241.118210,77.358116 251.113953,78.390526 
	C251.703430,78.451416 252.430420,77.181068 253.187622,76.153160 
	C254.470352,78.242668 255.658875,80.709213 256.950897,83.506859 
z"/>
<path fill="#2196DC" opacity="1.000000" stroke="none" 
	d="
M214.733124,116.000519 
	C218.878281,116.022812 222.753723,116.088722 226.628693,116.067482 
	C234.813019,116.022606 242.998962,116.013504 251.180511,115.827003 
	C255.436050,115.729996 259.683685,115.286812 264.382660,114.999985 
	C264.887421,115.425201 264.944366,115.850441 265.012085,117.005341 
	C265.008972,118.822906 264.995026,119.910797 264.554230,121.000626 
	C262.010040,121.333954 259.899109,121.901047 257.774323,121.958870 
	C242.850525,122.365028 227.923859,122.666229 212.998108,123.000977 
	C213.016647,121.598969 213.035172,120.196968 213.323135,118.196198 
	C213.688141,117.244514 213.783707,116.891602 213.879272,116.538689 
	C213.879272,116.538689 213.784546,116.263824 213.853928,116.136200 
	C214.103271,116.007278 214.283234,116.005974 214.733124,116.000519 
z"/>
<path fill="#116FDE" opacity="1.000000" stroke="none" 
	d="
M264.981079,120.998688 
	C264.995026,119.910797 265.008972,118.822906 265.032715,117.327606 
	C265.484894,122.475128 266.248596,128.029266 266.262329,133.585236 
	C266.272247,137.627701 265.291595,141.672592 264.407135,145.906891 
	C264.061707,146.097397 264.065857,145.985535 264.026001,145.517151 
	C263.994598,143.037766 264.002991,141.026749 264.300537,138.724335 
	C264.722260,134.956711 264.854858,131.480484 264.993622,127.566299 
	C264.993561,125.085121 264.987305,123.041901 264.981079,120.998688 
z"/>
<path fill="#3C1EFB" opacity="1.000000" stroke="none" 
	d="
M134.429260,237.992950 
	C138.490662,237.952972 142.949585,237.915939 147.399338,238.100189 
	C151.626816,238.275253 155.844696,238.681778 160.530853,239.194992 
	C160.994888,239.403488 160.995163,239.819275 160.995163,239.819275 
	C152.271042,239.243729 143.546906,238.668167 134.429260,237.992950 
z"/>
<path fill="#1579DB" opacity="1.000000" stroke="none" 
	d="
M42.584908,118.149788 
	C42.963207,118.374092 42.977680,118.838921 42.994534,120.068756 
	C43.001526,122.221085 43.006134,123.608414 43.005577,125.395531 
	C43.005081,126.860344 43.009754,127.925362 43.010361,129.366043 
	C43.011490,130.492905 43.016678,131.244125 43.024574,132.398254 
	C43.363930,135.196426 43.700584,137.591660 44.037235,139.986908 
	C44.152119,141.886398 44.266998,143.785904 44.086578,145.898987 
	C43.267876,136.871826 42.744476,127.631065 42.584908,118.149788 
z"/>
<path fill="#451AFB" opacity="1.000000" stroke="none" 
	d="
M161.417023,239.898956 
	C160.995163,239.819275 160.994888,239.403488 160.992889,239.195465 
	C167.149445,238.125793 173.307983,237.264114 179.723450,236.680634 
	C173.933228,237.965439 167.886047,238.972031 161.417023,239.898956 
z"/>
<path fill="#0ECDCB" opacity="1.000000" stroke="none" 
	d="
M247.392120,65.518372 
	C246.637619,65.889320 245.758362,65.942039 244.439560,65.997375 
	C244.059738,64.821167 244.119492,63.642338 244.346924,62.042137 
	C245.432205,62.813889 246.349792,64.007019 247.392120,65.518372 
z"/>
<path fill="#4843F2" opacity="1.000000" stroke="none" 
	d="
M72.692032,201.081070 
	C72.996643,201.844955 72.986694,202.610428 72.961044,203.759491 
	C72.358009,203.652618 71.770676,203.162170 71.062561,202.407349 
	C71.420341,201.789536 71.898903,201.436096 72.692032,201.081070 
z"/>
<path fill="#12C1CF" opacity="1.000000" stroke="none" 
	d="
M56.609253,71.754044 
	C56.897457,72.121582 56.939587,72.657440 56.990349,73.595779 
	C56.618629,73.999687 56.238277,74.001114 55.572746,74.004364 
	C55.646107,73.311584 56.004642,72.616974 56.609253,71.754044 
z"/>
<path fill="#09DEC2" opacity="1.000000" stroke="none" 
	d="
M221.109497,37.656094 
	C220.560837,37.564728 219.853775,37.235352 219.076324,36.595310 
	C219.654312,36.662457 220.302704,37.040272 221.109497,37.656094 
z"/>
<path fill="#572EF9" opacity="1.000000" stroke="none" 
	d="
M90.979477,220.336273 
	C91.400726,220.287674 92.014725,220.481064 92.740173,220.994080 
	C92.291824,221.068558 91.732025,220.823425 90.979477,220.336273 
z"/>
<path fill="#1BA4D9" opacity="1.000000" stroke="none" 
	d="
M44.965076,104.594200 
	C44.907742,105.314804 44.725319,105.574493 44.245811,105.886276 
	C44.103588,105.285820 44.175716,104.575134 44.530506,103.626648 
	C44.849682,103.656372 44.886196,103.923889 44.965076,104.594200 
z"/>
<path fill="#4843F2" opacity="1.000000" stroke="none" 
	d="
M246.463852,192.019058 
	C246.299484,191.586288 246.416061,190.970016 246.799133,190.169464 
	C246.958679,190.601959 246.851746,191.218765 246.463852,192.019058 
z"/>
<path fill="#572EF9" opacity="1.000000" stroke="none" 
	d="
M220.329529,218.088608 
	C220.268936,217.882370 220.471176,217.575043 220.937225,217.167465 
	C220.998154,217.373993 220.795258,217.680756 220.329529,218.088608 
z"/>
<path fill="#09DEC2" opacity="1.000000" stroke="none" 
	d="
M85.687973,38.990662 
	C85.723816,39.206631 85.483192,39.488438 84.965118,39.835979 
	C84.928955,39.619972 85.170235,39.338238 85.687973,38.990662 
z"/>
<path fill="#0ECDCB" opacity="1.000000" stroke="none" 
	d="
M59.630478,66.893082 
	C59.708099,67.110069 59.524906,67.423698 59.081635,67.838760 
	C59.004253,67.623375 59.186958,67.306549 59.630478,66.893082 
z"/>
<path fill="#15BAD1" opacity="1.000000" stroke="none" 
	d="
M253.328140,75.496033 
	C253.130356,75.542587 252.900131,75.383759 252.834808,75.111710 
	C252.999695,74.998489 253.295700,75.290634 253.328140,75.496033 
z"/>
<path fill="#2F72E5" opacity="1.000000" stroke="none" 
	d="
M44.228355,150.285858 
	C44.530991,150.204330 44.717892,150.445511 44.799236,151.003326 
	C44.436676,151.138794 44.242989,150.901657 44.228355,150.285858 
z"/>
<path fill="#258ADF" opacity="1.000000" stroke="none" 
	d="
M44.456573,139.981232 
	C43.700584,137.591660 43.363930,135.196426 43.430309,132.452408 
	C45.783772,132.402267 47.741970,132.998474 49.683285,132.947800 
	C57.882397,132.733749 66.077545,132.350677 74.272072,131.983307 
	C80.807449,131.690308 87.341812,131.364777 93.872902,130.989120 
	C98.658386,130.713882 103.435013,130.105423 108.220543,130.046295 
	C119.660637,129.904953 131.105209,129.909851 142.543655,130.107300 
	C144.088715,130.133987 145.608795,131.608643 147.140442,132.412811 
	C144.658005,134.906952 142.175568,137.401093 139.395493,140.052933 
	C137.319046,139.140488 135.510117,137.102295 133.766312,137.156586 
	C122.069908,137.520798 110.394569,138.653183 98.698509,138.914139 
	C83.703690,139.248703 68.695488,138.946945 53.693859,139.044067 
	C50.752655,139.063110 47.815128,139.650360 44.456573,139.981232 
z"/>
<path fill="#2A7BE2" opacity="1.000000" stroke="none" 
	d="
M264.011414,139.015747 
	C264.002991,141.026749 263.994598,143.037766 263.986389,145.477631 
	C249.085144,145.939102 234.182266,145.854187 219.282715,146.038940 
	C205.730743,146.206985 192.183365,146.733398 178.631454,146.929993 
	C176.581848,146.959747 174.518661,146.055420 172.223846,145.275909 
	C172.018448,144.800705 172.050980,144.632736 172.323669,144.078552 
	C172.789246,143.454147 172.918564,143.171936 172.951782,142.845673 
	C173.761215,141.942276 174.570633,141.038895 175.908081,140.311005 
	C186.016296,143.713074 195.493637,140.961578 205.001694,139.995056 
	C205.001694,139.995056 205.000519,140.000000 205.028229,140.311234 
	C205.459564,141.031219 205.863174,141.439972 206.266785,141.848740 
	C206.266785,141.848740 206.154602,141.924881 206.257202,142.153885 
	C206.738358,142.550934 207.116898,142.718994 207.495438,142.887039 
	C208.048706,142.679016 208.601959,142.471008 209.659485,141.957123 
	C211.407715,140.769333 212.588120,139.246323 213.906540,139.115662 
	C219.837296,138.527802 225.804916,138.284302 231.763611,138.012283 
	C240.049713,137.634003 248.338608,137.169846 256.628693,137.117203 
	C259.085480,137.101608 261.550293,138.347763 264.011414,139.015747 
z"/>
<path fill="#1F9BDB" opacity="1.000000" stroke="none" 
	d="
M43.010746,124.995743 
	C43.006134,123.608414 43.001526,122.221085 43.001804,120.417641 
	C52.076267,119.334351 61.135925,118.412582 70.217705,118.058586 
	C84.488319,117.502342 98.777679,117.440498 113.051598,116.950562 
	C121.422371,116.663246 129.772675,115.765625 138.143539,115.499733 
	C143.406250,115.332558 148.716705,115.589203 153.947189,116.176826 
	C155.416687,116.341919 156.678970,118.351357 158.075806,119.935059 
	C157.254318,121.471100 156.393326,122.586914 155.105530,123.501923 
	C153.199738,122.534294 151.723770,121.107536 150.241257,121.100693 
	C131.193939,121.012787 112.142044,120.923302 93.098946,121.262581 
	C80.283531,121.490898 67.473495,122.287781 54.675510,123.067474 
	C50.762623,123.305862 46.897659,124.330940 43.010746,124.995743 
z"/>
<path fill="#2292DE" opacity="1.000000" stroke="none" 
	d="
M147.415482,132.236389 
	C145.608795,131.608643 144.088715,130.133987 142.543655,130.107300 
	C131.105209,129.909851 119.660637,129.904953 108.220543,130.046295 
	C103.435013,130.105423 98.658386,130.713882 93.872902,130.989120 
	C87.341812,131.364777 80.807449,131.690308 74.272072,131.983307 
	C66.077545,132.350677 57.882397,132.733749 49.683285,132.947800 
	C47.741970,132.998474 45.783772,132.402267 43.427605,132.049484 
	C43.016678,131.244125 43.011490,130.492905 43.295609,129.159058 
	C44.222645,128.102158 44.849518,127.233292 45.499779,127.215416 
	C51.238434,127.057716 56.987133,127.199059 62.721664,126.970749 
	C76.792572,126.410561 90.852203,125.481163 104.927025,125.139481 
	C112.451813,124.956795 120.000359,125.957359 127.535042,125.911156 
	C133.303055,125.875786 139.088379,125.212189 144.822906,124.487267 
	C148.153290,124.066277 150.356934,124.736259 151.095566,128.254257 
	C149.960556,129.522827 148.825531,130.791397 147.415482,132.236389 
z"/>
<path fill="#306EE6" opacity="1.000000" stroke="none" 
	d="
M262.556580,150.998810 
	C260.246063,157.633011 253.727783,156.393494 248.831940,156.760132 
	C235.278610,157.775116 221.641724,157.696655 208.036606,157.992157 
	C191.025253,158.361649 174.012619,158.673050 156.537354,159.017151 
	C159.147003,156.386414 162.219864,153.748077 165.597382,150.958466 
	C170.197113,151.861237 174.457520,153.583054 178.795609,153.808304 
	C184.865448,154.123489 190.989960,153.166214 197.097031,153.039337 
	C204.900742,152.877228 212.718353,153.225906 220.515701,152.950363 
	C234.388412,152.460129 248.250381,151.666290 262.556580,150.998810 
z"/>
<path fill="#2196DC" opacity="1.000000" stroke="none" 
	d="
M151.372772,128.081787 
	C150.356934,124.736259 148.153290,124.066277 144.822906,124.487267 
	C139.088379,125.212189 133.303055,125.875786 127.535042,125.911156 
	C120.000359,125.957359 112.451813,124.956795 104.927025,125.139481 
	C90.852203,125.481163 76.792572,126.410561 62.721664,126.970749 
	C56.987133,127.199059 51.238434,127.057716 45.499779,127.215416 
	C44.849518,127.233292 44.222645,128.102158 43.299675,128.783401 
	C43.009754,127.925362 43.005081,126.860344 43.005577,125.395538 
	C46.897659,124.330940 50.762623,123.305862 54.675510,123.067474 
	C67.473495,122.287781 80.283531,121.490898 93.098946,121.262581 
	C112.142044,120.923302 131.193939,121.012787 150.241257,121.100693 
	C151.723770,121.107536 153.199738,122.534294 154.838593,123.651680 
	C153.882278,125.304604 152.766129,126.606964 151.372772,128.081787 
z"/>
<path fill="#2686E0" opacity="1.000000" stroke="none" 
	d="
M264.300537,138.724335 
	C261.550293,138.347763 259.085480,137.101608 256.628693,137.117203 
	C248.338608,137.169846 240.049713,137.634003 231.763611,138.012283 
	C225.804916,138.284302 219.837296,138.527802 213.906540,139.115662 
	C212.588120,139.246323 211.407715,140.769333 209.777496,141.784424 
	C209.927994,138.547363 210.464737,135.177155 211.527649,131.403412 
	C229.698380,130.001328 247.342941,129.002808 264.987488,128.004272 
	C264.854858,131.480484 264.722260,134.956711 264.300537,138.724335 
z"/>
<path fill="#238FDE" opacity="1.000000" stroke="none" 
	d="
M264.993652,127.566299 
	C247.342941,129.002808 229.698380,130.001328 211.617081,130.999313 
	C211.657028,128.550018 212.133743,126.101273 212.804276,123.326752 
	C227.923859,122.666229 242.850525,122.365028 257.774323,121.958870 
	C259.899109,121.901047 262.010040,121.333954 264.554230,121.000626 
	C264.987305,123.041901 264.993561,125.085121 264.993652,127.566299 
z"/>
<path fill="#297EE1" opacity="1.000000" stroke="none" 
	d="
M204.917175,139.724457 
	C195.493637,140.961578 186.016296,143.713074 176.185440,140.182129 
	C176.399719,139.314514 176.864670,138.751297 177.843094,137.966278 
	C178.552765,137.433243 178.748947,137.121994 178.945129,136.810760 
	C178.984680,136.508682 179.125778,136.265518 179.846436,135.912354 
	C180.531342,135.425644 180.738174,135.107834 180.945007,134.790039 
	C180.978714,134.481064 181.124435,134.239700 181.935898,134.135193 
	C188.479645,137.727097 194.828522,137.040329 201.224457,135.801743 
	C201.224457,135.801743 201.171814,135.883469 201.216599,136.110809 
	C201.559067,136.534821 201.856766,136.731491 202.154449,136.928146 
	C202.154449,136.928146 202.060608,136.949615 202.163223,137.161591 
	C202.574173,137.563965 202.882507,137.754379 203.190842,137.944794 
	C203.738113,138.447815 204.285370,138.950836 204.917175,139.724457 
z"/>
<path fill="#2688DF" opacity="1.000000" stroke="none" 
	d="
M201.115860,135.485641 
	C194.828522,137.040329 188.479645,137.727097 182.136536,134.052338 
	C184.718018,130.611237 187.652603,127.322205 190.982941,123.589630 
	C194.442871,127.586479 197.725067,131.378006 201.115860,135.485641 
z"/>
<path fill="#3B58EC" opacity="1.000000" stroke="none" 
	d="
M126.577026,181.916245 
	C126.088959,182.542847 125.288498,183.245377 124.101303,183.921768 
	C124.564590,183.261139 125.414619,182.626663 126.577026,181.916245 
z"/>
<path fill="#2688DF" opacity="1.000000" stroke="none" 
	d="
M206.214844,141.559052 
	C205.863174,141.439972 205.459564,141.031219 205.027100,140.310760 
	C205.386475,140.422485 205.774704,140.845917 206.214844,141.559052 
z"/>
<path fill="#14B9D1" opacity="1.000000" stroke="none" 
	d="
M159.130066,93.630157 
	C158.670364,93.697800 158.039948,93.500954 157.343735,92.960068 
	C157.838425,92.865906 158.398880,93.115791 159.130066,93.630157 
z"/>
<path fill="#3B58EC" opacity="1.000000" stroke="none" 
	d="
M118.649124,186.899338 
	C118.475891,187.210175 118.006126,187.575256 117.217285,187.950073 
	C117.383003,187.624405 117.867805,187.289001 118.649124,186.899338 
z"/>
<path fill="#3B58EC" opacity="1.000000" stroke="none" 
	d="
M127.737946,181.060257 
	C127.782913,181.268936 127.567581,181.524826 127.105797,181.852844 
	C127.065445,181.652481 127.271553,181.379959 127.737946,181.060257 
z"/>
<path fill="#14B9D1" opacity="1.000000" stroke="none" 
	d="
M151.304199,87.625885 
	C151.097534,87.724281 150.719147,87.568245 150.192123,87.135986 
	C150.406479,87.030342 150.769470,87.200897 151.304199,87.625885 
z"/>
<path fill="#14B9D1" opacity="1.000000" stroke="none" 
	d="
M156.184921,91.521210 
	C155.934906,91.595757 155.596054,91.382858 155.185211,90.864319 
	C155.440842,90.783707 155.768463,91.008736 156.184921,91.521210 
z"/>
<path fill="#3B58EC" opacity="1.000000" stroke="none" 
	d="
M119.750641,186.103958 
	C120.001030,186.061111 120.001228,186.530273 120.001976,186.764832 
	C119.817574,186.993515 119.632431,186.987640 119.170471,186.946136 
	C119.095856,186.655930 119.298058,186.401367 119.750641,186.103958 
z"/>
<path fill="#14B9D1" opacity="1.000000" stroke="none" 
	d="
M157.248581,92.403893 
	C156.992950,92.526657 156.654877,92.397469 156.276886,91.976898 
	C156.546692,91.840996 156.856400,91.996468 157.248581,92.403893 
z"/>
<path fill="#2688DF" opacity="1.000000" stroke="none" 
	d="
M172.711182,142.945099 
	C172.918564,143.171936 172.789246,143.454147 172.369293,143.825989 
	C172.273361,143.654617 172.371964,143.349564 172.711182,142.945099 
z"/>
<path fill="#3465E8" opacity="1.000000" stroke="none" 
	d="
M141.712494,171.026459 
	C141.742096,171.228622 141.503647,171.505646 140.992081,171.850250 
	C140.960785,171.645660 141.202606,171.373505 141.712494,171.026459 
z"/>
<path fill="#18B0D5" opacity="1.000000" stroke="none" 
	d="
M165.037170,98.702003 
	C164.833969,98.750046 164.548355,98.533920 164.200012,98.047554 
	C164.409760,97.997482 164.682266,98.217659 165.037170,98.702003 
z"/>
<path fill="#3465E8" opacity="1.000000" stroke="none" 
	d="
M142.783142,170.165100 
	C142.887680,170.402313 142.680771,170.639236 142.172699,170.893234 
	C142.051483,170.650909 142.251541,170.402405 142.783142,170.165100 
z"/>
<path fill="#1BA7D8" opacity="1.000000" stroke="none" 
	d="
M213.647247,116.709007 
	C213.783707,116.891602 213.688141,117.244514 213.383636,117.779182 
	C213.254868,117.600395 213.335037,117.239861 213.647247,116.709007 
z"/>
<path fill="#306EE6" opacity="1.000000" stroke="none" 
	d="
M153.711227,161.009064 
	C153.759415,161.205261 153.550873,161.488602 153.088470,161.862289 
	C153.041229,161.667175 153.247864,161.381683 153.711227,161.009064 
z"/>
<path fill="#306EE6" opacity="1.000000" stroke="none" 
	d="
M154.754852,160.075958 
	C154.795837,160.260300 154.593185,160.521652 154.155243,160.874786 
	C154.117035,160.695389 154.314133,160.424179 154.754852,160.075958 
z"/>
<path fill="#2688DF" opacity="1.000000" stroke="none" 
	d="
M180.692673,134.916107 
	C180.738174,135.107834 180.531342,135.425644 180.050308,135.842804 
	C179.997528,135.642181 180.218933,135.342178 180.692673,134.916107 
z"/>
<path fill="#2688DF" opacity="1.000000" stroke="none" 
	d="
M202.071442,136.664963 
	C201.856766,136.731491 201.559067,136.534821 201.187515,136.071869 
	C201.405243,136.004318 201.696823,136.203049 202.071442,136.664963 
z"/>
<path fill="#2688DF" opacity="1.000000" stroke="none" 
	d="
M178.692505,136.928879 
	C178.748947,137.121994 178.552765,137.433243 178.094925,137.850235 
	C178.035477,137.653000 178.237686,137.350006 178.692505,136.928879 
z"/>
<path fill="#2688DF" opacity="1.000000" stroke="none" 
	d="
M203.077209,137.693115 
	C202.882507,137.754379 202.574173,137.563965 202.164520,137.113464 
	C202.363312,137.049393 202.663437,137.245422 203.077209,137.693115 
z"/>
<path fill="#2688DF" opacity="1.000000" stroke="none" 
	d="
M207.329193,142.625885 
	C207.116898,142.718994 206.738358,142.550934 206.236084,142.089462 
	C206.462555,141.985596 206.812744,142.175156 207.329193,142.625885 
z"/>
</svg>
